<svg xmlns="http://www.w3.org/2000/svg" xmlns:xlink="http://www.w3.org/1999/xlink" xmlns:bx="https://boxy-svg.com"><defs><symbol viewBox="0 0 42 42" id="ar"><g fill="none" fill-rule="evenodd"><path d="M0 0h42v42H0z" /><text fill="#000" font-family="Lato-Semibold, Lato" font-size="10" font-weight="500"><tspan x="24.9" y="37">AR</tspan></text><path fill="#000" fill-rule="nonzero" d="M20.5 26.3c.4 0 .7.2.7.5v1.6l1.5-.8h.1c.3-.1.7 0 .9.2.1.3 0 .6-.2.8h-.1L20.9 30a.7.7 0 01-.6 0l-2.6-1.2c-.4-.2-.5-.6-.3-.9.2-.2.6-.3.9-.2l1.6.8V27c0-.3.2-.5.6-.6zm-9.9-5.5c.4 0 .6.2.7.5v2.5l2 1.3c.3.1.4.5.3.8a.6.6 0 01-.8.4l-2.5-1.5a.7.7 0 01-.3-.5v-2.9c0-.3.3-.6.6-.6zm20.8 0c.3 0 .6.2.6.5v2.9c0 .2 0 .4-.2.6h-.1l-2.4 1.4-.3.1a.6.6 0 01-.6-.3c-.1-.3 0-.7.2-.9l2.1-1.3v-2.4c0-.3.3-.6.6-.6zm-7.7-4.3c.1.3 0 .6-.2.8l-.1.1-2.2 1.2V21c0 .4-.2.6-.6.7a.7.7 0 01-.7-.6v-2.5l-2.2-1.2a.7.7 0 01-.3-.8v-.1c.2-.3.6-.4.9-.3l2.2 1.3 2.2-1.3h.1c.3-.1.7 0 .9.3zm-11-5.8c.3-.2.7 0 .9.2.2.4 0 .8-.3 1l-1.4.8 1.4.8c.3.2.4.5.3.8v.1c-.2.3-.6.4-.9.3l-1.4-.9v1.7c0 .3-.3.6-.6.6a.7.7 0 01-.7-.6v-2.8c0-.3.1-.5.3-.6zm16.5 0l2.5 1.4c.1.1.3.3.3.5v2.9c0 .4-.3.7-.6.7a.6.6 0 01-.7-.6v-1.8l-1.4.9H29a.6.6 0 01-.6-.3c-.1-.3 0-.6.2-.8v-.1l1.5-.8-1.4-.8a.7.7 0 01-.3-.9c.2-.3.5-.5.8-.3zM20.8 6l2.6 1.5a.7.7 0 01-.6 1.2l-2.3-1.3-2.2 1.3h-.2a.7.7 0 01-.5-1.1v-.1l2.6-1.4h.6z" /></g></symbol><symbol viewBox="0 0 32 32" id="arrow"><path d="M30.2 25c-.5 0-.8-.3-1-.6l-13.3-13-13 13c-.6.5-1.6.5-2 0-.6-.5-.6-1.5 0-2l15-15.3 15.3 15.3c.5.5.5 1.5 0 2-.3.3-.8.5-1 .5z" /></symbol><symbol viewBox="0 0 17 12" id="arrow-right"><path fill="#252525" d="M11.9-.1l.06.06L16.93 6l-4.97 6.04a.6.6 0 01-.98-.68l.06-.08 3.85-4.68H.5a.6.6 0 01-.1-1.2h14.5L11.04.72a.6.6 0 010-.77l.08-.07a.6.6 0 01.78.01z" /></symbol><symbol viewBox="0 0 32 32" id="camera"><path fill-rule="evenodd" d="M28.3.6a3 3 0 013 3.1v24.6a3 3 0 01-3 3H3.7a3 3 0 01-3-3V3.7a3 3 0 013-3h24.6zm0 2H3.7a1 1 0 00-1 1.1v24.6c0 .6.4 1 1 1h24.6c.6 0 1-.4 1-1V3.7c0-.6-.4-1-1-1zM12.8 17.8c.3-.4.9-.4 1.4 0 .4.5.4 1.1 0 1.6l-4.5 4.3h3.7a1 1 0 010 2H7.2a1 1 0 01-.9-1v-6a1 1 0 012 0V22zm12-11.5c.4 0 .9.5.9 1v6a1 1 0 01-2 0V10l-4.5 4.6a1 1 0 01-1.4 0 1 1 0 010-1.6l4.5-4.6h-3.7a1 1 0 010-2z" /></symbol><symbol viewBox="0 0 31 28" id="cart"><path d="M11.5 21C9.6 21 8 22.6 8 24.5S9.6 28 11.5 28s3.5-1.6 3.5-3.5-1.6-3.5-3.5-3.5zm0 5.4c-1 0-1.9-.8-1.9-1.9s.8-1.9 1.9-1.9 1.9.8 1.9 1.9-.9 1.9-1.9 1.9zm14-5.4c-1.9 0-3.5 1.6-3.5 3.5s1.6 3.5 3.5 3.5 3.5-1.6 3.5-3.5-1.6-3.5-3.5-3.5zm0 5.4c-1 0-1.9-.8-1.9-1.9s.8-1.9 1.9-1.9 1.9.8 1.9 1.9-.9 1.9-1.9 1.9zM30.2 3H5.9l-.4-1.5A2 2 0 003.6 0H.8C.3 0 0 .3 0 .7c0 .4.3.7.8.7h2.8c.2 0 .4.2.5.4l4.3 15.8a3.1 3.1 0 003.1 2.4h15.7c.4 0 .8-.3.8-.7 0-.4-.3-.7-.8-.7H11.4c-.7-.1-1.4-.6-1.6-1.3V17h17c.9-.1 1.7-.7 1.9-1.6L31 3.9v-.1c0-.4-.3-.8-.8-.8zm-3.1 12.1c-.1.3-.3.4-.5.4H9.3l-3-11h22.9l-2.1 10.6z" /></symbol><symbol viewBox="0 0 32 32" id="check"><path d="M5.8 14.6a1.5 1.5 0 10-2.2 2l9 8.8L28 10a1.5 1.5 0 10-2.2-2L12.5 21.1l-6.7-6.6z" /></symbol><symbol viewBox="0 0 32 32" id="close"><rect width="42.5" height="3.1" x="19" y="14" rx="1.6" ry="1.5" transform="rotate(-45 29 45)" /><rect width="42.5" height="3.1" x="19" y="14" rx="1.6" ry="1.5" transform="rotate(45 27 -14)" /></symbol><symbol viewBox="0 0 32 32" id="copy"><path d="M29 11a28 28 0 00-6-6l-3-1H9C7 4 6 5 6 7v23c0 1 1 2 3 2h19l2-2V14l-1-3zm-4-2l2 3h-5V7l3 2zm3 21H8V7l1-1h11v7l1 1h7v16z" /><path d="M19 1l-3-1H5C3 0 2 1 2 3v23l2 2V3l1-1h15l-1-1z" /></symbol><symbol viewBox="0 0 32 32" id="delete"><path d="M10.5 1c-.3.4-.4.7-.4 1.5v.6H4.8l-.3.2c-.5.4-.6.6-.7 1.8 0 1.1 0 1.3.5 1.7.4.4.6.4 1.5.4h.5v11.4c0 12.6 0 11.6.4 12.1l.2.2h18l.1-.2c.6-.4.5.6.5-12V7.1h.8c.9 0 1.2-.2 1.6-.7.2-.3.3-.8.2-1.7 0-.8-.1-1-.6-1.4l-.3-.2H22v-.6c0-.9-.2-1.4-.8-1.7-.2-.2-.4-.2-5.2-.2h-5.1l-.3.3zm9.7 1.6v.5h-8.4V2h8.4v.5zm6.2 2.6v.4H5.5v-.9h21v.5zM24 18.3v11.1H8V7.2h16v11.1z" /><path d="M10.1 18.4v9h1.6v-7l.1-9v-2h-1.7v9zm5 0v9h1.8v-18h-1.6v9zm5 0v9h1.7v-18h-1.6v9z" /></symbol><symbol viewBox="0 0 32 32" id="dots"><path d="M6.86 1a4.1 4.1 0 10-4.8 6.64A4.1 4.1 0 106.87 1zM5.9 2.33a2.46 2.46 0 01-2.87 3.99A2.46 2.46 0 015.9 2.33zM18.38.99a4.1 4.1 0 10-4.8 6.64A4.1 4.1 0 1018.38 1zm-.98 1.32a2.46 2.46 0 01-2.87 4 2.46 2.46 0 012.87-4zm12.48-1.3a4.1 4.1 0 10-4.8 6.64 4.1 4.1 0 104.8-6.64zm-.98 1.32a2.46 2.46 0 01-2.87 4 2.46 2.46 0 012.87-4zM6.87 12.5a4.1 4.1 0 10-4.8 6.65 4.1 4.1 0 104.8-6.65zm-.96 1.33a2.46 2.46 0 01-2.87 3.99 2.46 2.46 0 012.87-3.99zm12.46-1.31a4.1 4.1 0 10-4.8 6.64 4.1 4.1 0 104.8-6.64zm-.97 1.32a2.46 2.46 0 01-2.88 4 2.46 2.46 0 012.88-4zm12.47-1.34a4.1 4.1 0 10-4.8 6.64 4.1 4.1 0 104.8-6.64zm-.97 1.32a2.46 2.46 0 01-2.88 4 2.46 2.46 0 012.88-4zM6.88 24.01a4.1 4.1 0 10-4.8 6.65A4.1 4.1 0 106.88 24zm-.96 1.33a2.46 2.46 0 01-2.88 3.99 2.46 2.46 0 012.88-3.99zm12.46-1.33a4.1 4.1 0 10-4.8 6.64 4.1 4.1 0 104.8-6.64zm-.96 1.32a2.46 2.46 0 01-2.88 4 2.46 2.46 0 012.88-4zm12.45-1.34a4.1 4.1 0 10-4.8 6.64 4.1 4.1 0 104.8-6.64zm-.97 1.32a2.46 2.46 0 01-2.88 4 2.46 2.46 0 012.88-4z" /></symbol><symbol viewBox="0 0 32 32" id="edit"><path d="M17.6 1.4c-.5.2-.7.5-1 1l-9 19.4-.1.2v2.6l-.1 2.5.1 2.7c.4.7 1.4 1 2 .7.2 0 .7-.5 2.4-2a59 59 0 013.4-3c.2-.3 1.4-2.7 4.7-10l4.6-9.8c.2-.5 0-1.2-.5-1.6-1.8-1-3.6-1.8-5.5-2.7h-1zm3 2.6l2.6 1.2-1.8 4.3-3.6 7.6-3.4 7.2-.2-.2-2.6-1.2-2.4-1.1.1-.2 8-17.2.8-1.5L20.6 4zm-9.4 20.4l2 1-2.1 1.8L8.8 29l.2-5.6 2.2 1z" /></symbol><symbol viewBox="0 0 32 32" id="export-3d"><path d="M11.7 21.85c.4 0 .78.06 1.12.17.33.13.62.3.86.5.47.42.74 1.02.73 1.65 0 .28-.03.55-.1.76-.06.22-.16.41-.27.57-.12.16-.27.3-.45.41-.19.12-.37.2-.61.3.55.15.95.41 1.21.76.28.35.4.79.4 1.31.03.8-.31 1.55-.92 2.06-.28.25-.61.42-.99.54-.77.24-1.6.25-2.37.02a2.57 2.57 0 01-1.5-1.2c-.18-.32-.34-.66-.45-1.02l.68-.29.13-.03a.74.74 0 01.52.03c.07.04.15.12.19.2l.25.43c.08.14.2.26.32.37.29.25.66.38 1.04.38a1.6 1.6 0 001.18-.46c.25-.27.38-.62.37-.98 0-.21 0-.41-.06-.58a.86.86 0 00-.29-.45 1.39 1.39 0 00-.62-.29 4.53 4.53 0 00-1.1-.11v-1.1h.24c.27-.02.52-.05.72-.11.25-.06.45-.15.6-.28a.91.91 0 00.3-.42c.06-.16.09-.35.09-.55 0-.42-.13-.75-.35-.97-.26-.23-.6-.34-.95-.32a1.4 1.4 0 00-1.42 1.03.66.66 0 01-.2.34.53.53 0 01-.35.11l-.2-.02-.82-.14.05-.25a2.72 2.72 0 011.9-2.2c.36-.12.73-.17 1.13-.17zm7.68.1h.33a5.1 5.1 0 011.54.34 4.22 4.22 0 012.36 2.35 5 5 0 010 3.63 4.17 4.17 0 01-2.36 2.37c-.57.21-1.19.32-1.87.32h-3.43v-9.01h3.44zm0 1.33h-1.75v6.35h1.75c.44 0 .83-.08 1.18-.23.36-.13.66-.34.9-.62.25-.27.43-.6.57-1a4.32 4.32 0 000-2.65 2.6 2.6 0 00-2.65-1.85zM15.9.93c.34 0 .61.25.66.56l.01.13v13.96l5.25-4.99a.75.75 0 011.12.97l-.08.12-6.45 6.1-.02.03-.07.05-.04.04c-.1.05-.2.09-.32.1h-.06a.74.74 0 01-.31-.07l-.04-.02-.02-.01-.04-.03h-.01a1.2 1.2 0 01-.07-.06l-.03-.02-6.44-6.11a.75.75 0 01.93-1.17l.1.08 5.24 4.99V1.6a.7.7 0 01.69-.69z" /></symbol><symbol viewBox="0 0 32 32" id="list"><path d="M6.28 1.74A3.86 3.86 0 102.95 8.7a3.86 3.86 0 103.33-6.96zM5.6 3.13a2.31 2.31 0 01-2 4.18 2.31 2.31 0 012-4.18zm.67 9.39a3.86 3.86 0 10-3.33 6.96 3.86 3.86 0 103.33-6.96zM5.6 13.9a2.31 2.31 0 01-2 4.18 2.31 2.31 0 012-4.18zm.67 9.4a3.86 3.86 0 10-3.32 6.97 3.86 3.86 0 103.32-6.96zm-.66 1.4a2.31 2.31 0 01-2 4.18 2.31 2.31 0 012-4.18z" bx:shape="ring 472.848 354.563 2.315 2.315 3.86 3.86 1@5efdc826" /><rect width="18.52" height="2.24" x="12.76" y="3.64" rx=".53" ry=".53" /><rect width="18.52" height="2.24" x="12.77" y="14.88" rx=".53" ry=".53" /><rect width="18.52" height="2.24" x="12.76" y="26.77" rx=".53" ry=".53" /></symbol><symbol viewBox="0 0 32 32" id="magnifier"><path fill-rule="evenodd" d="M12.921 2.232c5.753 0 10.434 4.679 10.434 10.433 0 5.753-4.681 10.434-10.434 10.434-5.754 0-10.433-4.681-10.433-10.434 0-5.754 4.679-10.433 10.433-10.433zm18.167 26.381l-8.352-8.35a12.318 12.318 0 002.595-7.598c0-3.315-1.29-6.431-3.635-8.776A12.328 12.328 0 0012.921.254a12.332 12.332 0 00-8.776 3.635A12.332 12.332 0 00.51 12.665c0 3.314 1.291 6.432 3.635 8.775a12.33 12.33 0 008.776 3.637 12.32 12.32 0 007.598-2.597l8.35 8.352a1.568 1.568 0 002.219 0 1.569 1.569 0 000-2.219z" /></symbol><symbol viewBox="0 0 32 32" id="measurements"><path d="M9.5 2.2c.4 0 .8.3.8.8v2.4h-.8a.8.8 0 000 1.6h.8v3.3h-.8a.8.8 0 100 1.6h.8v3.3h-.8a.8.8 0 100 1.5h.8V20h-.8a.8.8 0 000 1.7h.8V25h-.8a.8.8 0 100 1.5h.8V29c0 .5-.4.8-.8.8H6.2c-.3 0-.8-.3-.8-.8V3c0-.4.5-.7 1-.7h3.2zm5.7 16.2v.9a.8.8 0 101.6 0v-.8H20v.8a.8.8 0 001.6 0v-.8H25v.8a.8.8 0 101.6 0v-.8H29c.4 0 .8.3.8.8v3.3c0 .4-.4.7-.8.7H12v-4.8h3.2zm-12 4.8c-.6 0-1-.3-1-.8v-3.3c0-.4.4-.7.8-.7h1v4.8H3zm.6-6.5H3a2.5 2.5 0 00-2.4 2.6v3.3c0 1 1 2.2 2.4 2.2h1v4.1c0 1.4 1 2.5 2.4 2.5h3.3c1.2 0 2.3-1.1 2.3-2.5v-4.1h17c1.4 0 2.5-1 2.5-2.2v-3.3c0-1.4-1-2.5-2.4-2.5H12V3.1C12 1.7 10.7.6 9.4.6H6.2C5 .6 3.9 1.6 3.9 3v13.7z" /></symbol><symbol viewBox="0 0 26 6" id="menu-points"><circle cx="3" cy="3" r="3" /><circle cx="13" cy="3" r="3" /><circle cx="23" cy="3" r="3" /></symbol><symbol viewBox="0 0 32 32" id="mulitselect"><path d="M26.8 2.2h-2v1.5h3.4v3.8h1.5v-5l-.3-.3h-2.6zm-17.2.9V4h5.3V2.4H9.6V3zm7.4 0V4h5.5V2.4h-5.4V3zm-9.8-.7H2.9l-.1.1c-.2 0-.3.2-.3.4v4.5H4V3.8h3.2V2.5c0-.1 0-.1 0 0zm8.4 6.9c-.2 0-.3.2-.4.4l-.1 3v2.6H9.8c-.5.1-.8.7-.5 1.2 0 .1.2.3.4.3h5.4V22c0 .4.4.6.7.6.3 0 .6-.1.7-.4V17h5.6c.3-.2.5-.4.5-.7 0-.3 0-.6-.3-.8h-5.7V9.7h-.1a.7.7 0 00-.9-.5zM3 9.7h-.7v5.4h1.5V9.6H3zm26 0h-.8v5.4h1.5V9.6H29zM2.3 19.8v2.7h1.5v-5.3H2.3v2.6zm25.9 0v2.7h1.5v-5.3h-1.5v2.6zm-25.9 7v2.5l.5.3h4.5v-1.5H3.9v-3.4l-.1-.1H2.3v2.2zm25.9-.3v1.8h-3.5v1.5h4.6c.2 0 .3-.2.3-.3l.1-2.5v-2.3h-1.5v1.8zM9.6 29v.8h5.3v-1.5H9.6v.8zm7.4 0v.8h5.5v-1.5h-5.4v.8z" /></symbol><symbol viewBox="0 0 32 32" id="partlist"><path d="M25.6 4.7v25H6.4v-25H8c.4 0 .8-.3.8-.7 0-.4-.4-.8-.8-.8H5.5c-.4 0-.6.4-.6.8v26.5c0 .4.2.8.6.8h21c.4 0 .6-.4.6-.8V4c0-.4-.2-.8-.6-.8H24c-.4 0-.8.4-.8.8s.4.7.8.7z" /><path d="M19 .9c1.8 0 3.2 1.3 3.2 3.1v2.4c0 .4-.3.8-.7.8h-11a.7.7 0 01-.7-.8V4C9.8 2.2 11.2.7 13 .7zM20.8 4c0-1-.8-1.8-1.8-1.8h-6c-1 0-1.8.9-1.8 1.8v1.8h9.6zm-10.3 9.7h11c.4 0 .7-.5.7-.9s-.3-.7-.7-.7h-11c-.4 0-.7.3-.7.7 0 .4.3.9.7.9zm0 6.2h11c.4 0 .7-.3.7-.7 0-.4-.3-.9-.7-.9h-11c-.4 0-.7.5-.7.9s.3.7.7.7z" /></symbol><symbol viewBox="0 0 32 32" id="placeholder"><path d="M31.58 28.98H.42V3.02h31.16v25.96zm-1.3-24.67H1.72v23.37h28.56V4.31zm-1.3 20.78H4.32l5.19-9.74 3.9 3.9L19.9 9.5l9.08 15.58zm-15.32-3.77l-3.9-3.9-3.24 6.37h20.26L19.9 11.98l-6.24 9.21v.13z" /></symbol><symbol viewBox="0 0 32 32" id="print"><path d="M26.4 15c0 .6-.4 1-1 1a1 1 0 01-1-1c0-.5.5-.9 1-.9.6 0 1 .4 1 1zm5-1.7V23c0 1.8-1.5 3.3-3.4 3.3h-1.3v1.8c0 2-1.5 3.4-3.3 3.4H8.6a3.4 3.4 0 01-3.3-3.4v-1.8H4A3.4 3.4 0 01.6 23v-9.8C.6 11.4 2 9.9 4 9.9h1.3V3.8C5.3 1.9 6.8.4 8.6.4h14.8c1.8 0 3.3 1.5 3.3 3.4v6.1H28c2 0 3.4 1.5 3.4 3.4zM6.8 9.9h18.4V3.8c0-1-.8-1.9-1.9-1.9H8.6c-1 0-1.8.8-1.8 1.9v6zm18.4 10H6.8v8.3c0 1 .8 2 1.8 2h14.8c1 0 1.8-1 1.8-2v-8.4zm4.7-6.6c0-1-.8-1.9-1.9-1.9H4c-1 0-2 .8-2 1.9V23c0 1 1 1.8 2 1.8h1.3v-6.6h21.4v6.6H28c1 0 2-.9 2-1.9v-9.7zM23 23c0-.4-.3-.7-.7-.7H10a.8.8 0 000 1.5h12.2c.4 0 .7-.4.7-.8zm0 4c0-.5-.3-.8-.7-.8H10a.8.8 0 100 1.5h12.2c.4 0 .7-.3.7-.8z" /></symbol><symbol viewBox="0 0 338 100" id="roomle"><path d="M255 49v48.5h8l8-.2.2-48.3V.7h-16V49zM65.6 38.4c-12.6 2-20.3 9.3-23 21.6-1 5.4-.8 14.7.6 19.6 3 10 9.4 16.2 19 18.7 4.4 1 14.7 1 19.2 0 10-2.3 16.8-9 19.3-19 1.6-6 1.6-15.3 0-21.5-2.5-9.6-9-16.2-19-18.7-3.7-1-12-1.3-16-.7zm11.8 12c2.3 1.2 4.3 4 5.4 7.5 1 3.5 1 18.8 0 22.3-1.6 5.5-5 8-10.5 8-1.8 0-4-.3-5-.7-2.2-.8-4.6-3-5.6-5.5-2.3-5.2-2.4-18.8-.3-25.2.7-2.3 3-5.3 5-6.2 3-1.6 7.7-1.6 11 0zm52.5-12c-9.3 1.5-16.2 6.2-20 13.8-2.6 5.5-3.3 9-3.2 17 0 5.4 0 7.2 1 10 1.8 7 4.7 11.5 9.5 15 10 7 28.5 7 38.5 0 4.8-3.5 7.8-8.2 9.6-15 1.5-5 1.5-15 .2-20.4-2.6-10.3-9.3-17-19.3-19.6-3.4-1-12.5-1.3-16.2-.7zm11 11.6c1.8.4 4 2.5 5.2 4.5 2.6 5.3 3.2 19.5 1 26.3-1.6 4.8-5 7-10.7 7-5.5 0-9-2.2-10.6-7-2-6.6-1.7-21 .8-26 1-1.8 2.7-3.7 4.2-4.5 2.5-1.3 6.6-1.5 10-.4zm158.8-11.7c-11.5 1.8-19 8.2-21.3 18.5-1.7 7.4-1.6 18 .3 24.5 2.4 9 8.3 14.6 17.6 17 4.6 1 16.7 1 21.2-.2 9.2-2.5 15.7-8.8 16.4-16l.3-2.4h-17l-.3 1.7c-.4 2.4-2 4.4-4.2 5.5-1.8 1-2.8 1-6 1-8 0-11-3-11.6-12.8l-.4-4h40.8l-.3-5c-.4-9.8-2.6-15.7-7.6-20.7-3.4-3.4-6.2-5-11.3-6.2-3.7-1-12.4-1.3-16.4-.7zm12 12c3.3 1.6 5.2 4.7 5.7 9.3l.3 3h-22.4v-2c0-2.3 1-5.4 2.3-7.5 2.4-3.5 9.3-5 14-2.6zM34 38.6l-2.8.8c-3.3 1-6.6 3.2-9.7 6.3l-2.7 2.6V40H2.6v57h16.2V79.6l.3-17.6 1-2c2.2-3.8 5.2-5 13.3-5H39V38.4h-2.3c-1.3 0-2.5 0-2.7.2zM177.5 40s-2 12.8-4 28.2c-2.3 15.5-4 28.4-4 28.7 0 .5 1 .5 8 .5l8-.2 1.8-17.7 2-18.4c.2-.5 2.8 7.5 6 17.7l5.4 18.3 8.4.2c7.8 0 8.5 0 9-.7 0-.4 2.6-8.5 5.5-18 6-19.5 5.6-18.8 5.8-18l2 17.3c.8 9.3 1.7 17.4 2 18v1.5h8c4 0 7.8 0 7.8-.2.3 0-7.6-55.3-8-57.2h-10l-9.8.2-5.8 19.8c-3 11-6 20-6 20.4 0 .3-3-8.7-6-20l-6-20.4h-20z" /></symbol><symbol viewBox="0 0 24 24" id="rotate"><path d="M7.5 21.5a10.5 10.5 0 01-6-8.5H.1A12 12 0 0012 24h.7l-3.8-3.8-1.4 1.3zM12 0h-.7l3.8 3.8 1.4-1.3c3.3 1.6 5.6 4.7 6 8.5h1.4A12 12 0 0012 0z" /></symbol><symbol viewBox="0 0 30 28" id="save"><path d="M15 27.3c-.3 0-.5-.3-.7-.4-.5-1.1-2.3-2.5-4.3-4.3C5.9 19 .2 14.2.2 8.6c0-2 .8-4 2.3-5.4A8.3 8.3 0 018.3.7 8 8 0 0115 4.3 8 8 0 0121.7.8a8 8 0 018.1 8c-.1 5.6-5.7 10.4-9.8 13.9-2 1.6-3.7 3.1-4.3 4.3-.2.2-.4.4-.7.4zm-6.7-25c-1.8 0-3.5.7-4.7 2a5.5 5.5 0 00-1.8 4.3c0 4.8 5.2 9.3 9.3 12.8 1.7 1.4 3.1 2.6 4 3.7.9-1.2 2.3-2.4 4-3.8 4.1-3.4 9.2-7.8 9.3-12.8 0-3.5-2.9-6.3-6.6-6.3-2.6 0-5 1.4-6 3.8-.2.5-1.1.5-1.4 0a6.9 6.9 0 00-6.1-3.8zM29 8.6z" /></symbol><symbol viewBox="0 0 21 17" id="screenshot"><path d="M17.6 16.5H3.4a2.9 2.9 0 01-2.9-2.9v-8C.5 4 1.8 2.7 3.4 2.7h2.1l.3-.7C6.3 1 7.3.4 8.4.4h4.1c1.1 0 2.1.6 2.6 1.6l.3.7h2.1c1.6 0 2.9 1.3 2.9 2.9v8.1c.1 1.6-1.2 2.8-2.8 2.8zM3.4 3.9c-1 0-1.8.8-1.8 1.8v8.1c0 1 .8 1.8 1.8 1.8h14.2c1 0 1.8-.8 1.8-1.8V5.6c0-1-.8-1.8-1.8-1.8h-2.8l-.6-1.3c-.3-.6-.9-1-1.6-1H8.4c-.7 0-1.3.4-1.6 1l-.6 1.4H3.4zm7.1 10.9c-2.9 0-5.3-2.3-5.3-5.2s2.4-5.2 5.3-5.2 5.3 2.3 5.3 5.2-2.4 5.2-5.3 5.2zm0-9.2c-2.3 0-4.2 1.8-4.2 4.1s1.9 4.1 4.2 4.1c2.3 0 4.2-1.8 4.2-4.1s-1.9-4.1-4.2-4.1z" /></symbol><symbol viewBox="0 0 30 30" id="turn-device"><path d="M20.8 5.5c.2-.2.4-.6.2-.9l-.4-1.3c3.6 1.5 6 5.2 6 9.5 0 .3.3.6.7.6.4 0 .6-.3.6-.6 0-4.9-2.8-9-7-10.7l1.2-.6c.3-.2.5-.5.3-.8-.2-.3-.6-.5-.9-.3L18.4 2l1.5 3.2c.2.3.6.4.9.3zm4.4 9.2H15V6.1a2.6 2.6 0 00-2.6-2.5H4.5a2.6 2.6 0 00-2.4 2.6v16.4A2.6 2.6 0 004.7 25h1.6c0 1.5 1.2 2.7 2.7 2.7h16c1.4 0 2.7-1.2 2.7-2.7v-7.6c0-1.5-1.1-2.7-2.6-2.7zM6.3 17.4v6.3H4.6c-.7 0-1.2-.6-1.2-1.3V6.1C3.4 5.5 4 5 4.7 5h7.7c.7.1 1.3.7 1.3 1.3v8.5H9a2.7 2.7 0 00-2.7 2.7zM26.5 25c0 .8-.5 1.4-1.3 1.4H9c-.8 0-1.4-.6-1.4-1.4v-7.6c0-.8.6-1.3 1.4-1.3h16c.8 0 1.3.5 1.3 1.3V25z" /></symbol><symbol viewBox="0 0 42 42" id="variants"><path d="M23.26 5.48c-.11.01-.27.08-.38.15-.06.04-5 4.97-5.08 5.07-.06.07-.12.18-.15.27-.1.31-.05.64.15.91.05.08 4.97 5 5.04 5.05.12.08.26.15.4.17a.97.97 0 001.06-1.39c-.08-.15-.06-.13-1.74-1.82l-1.62-1.62h4.73c4.35 0 4.76 0 4.92.02a8.6 8.6 0 015.26 2.33 8.7 8.7 0 01.9 11.78 8.74 8.74 0 01-7.51 3.33c-1.27 0-1.2 0-1.37.07a.93.93 0 00-.32.21c-.2.2-.3.42-.3.7 0 .14.03.23.07.36.12.28.34.48.65.58l.07.02h1.09c1.1 0 1.35 0 1.72-.03a10.63 10.63 0 007.39-3.97 10.66 10.66 0 00-1.45-14.83 10.65 10.65 0 00-6.02-2.49c-.36-.03-.6-.03-5.16-.03h-4.68l1.62-1.63L24.24 7a.97.97 0 00-.78-1.52h-.2zm-11.75 4.85a10.59 10.59 0 00-7.57 3.77 10.66 10.66 0 001.27 15.06 10.63 10.63 0 006.32 2.5l4.87.01h4.67l-1.62 1.63c-1.78 1.78-1.7 1.7-1.78 1.89a1 1 0 00.03.8.98.98 0 001.42.37c.08-.05 5.04-5 5.1-5.1a.96.96 0 00.18-.6.96.96 0 00-.26-.63c-.14-.15-4.9-4.9-4.98-4.96a.98.98 0 00-1.5.46.98.98 0 00.04.75c.08.16.06.14 1.74 1.82l1.62 1.63h-4.6c-4.59 0-4.74 0-5.13-.04a8.72 8.72 0 01-4.7-15.49 8.7 8.7 0 016.1-1.93c1.13 0 1.14 0 1.22-.03a.98.98 0 00.7-.67.97.97 0 00-.5-1.15 1.53 1.53 0 00-.17-.07l-.07-.02h-2.4z" /></symbol><symbol viewBox="0 0 32 32" id="warning"><path d="M15.83 2.58a.63.63 0 00-.17.1A6857.85 6857.85 0 00.63 28.61c-.09.17-.1.38-.02.52.06.12.2.25.31.28.08.03 2.45.04 15.11.04h15.02l.09-.05a.56.56 0 00.28-.63c-.03-.11-14.89-25.9-15-26.03a.55.55 0 00-.6-.16zm7.1 13.63l6.95 12.05.05.1-13.91-.02c-7.65 0-13.92-.02-13.92-.02A4122.9 4122.9 0 0116.02 4.24l6.9 11.97z" /><path d="M16.01 12.04a.8.8 0 00-.49.4l-.06.11v8.7l.06.11c.08.14.24.3.38.36.08.03.15.05.29.05.16 0 .2-.01.33-.08a.69.69 0 00.36-.36l.06-.13v-8.6l-.06-.13a.7.7 0 00-.35-.36.81.81 0 00-.52-.07zm.04 11.33c-.26.03-.45.12-.63.31a1.1 1.1 0 001.03 1.86 1.1 1.1 0 00-.04-2.16l-.17-.02h-.19z" /></symbol><symbol viewBox="0 0 32 32" id="zoom"><path class="cls-1" fill="none" d="M10.5 1.8l-8.6 8.8" /><path class="cls-2" fill="none" stroke="#000" stroke-linejoin="round" stroke-width="1.5" d="M7.3 7.3h17.5v17.5H7.3z" /><path class="cls-3" fill="none" stroke="#000" stroke-linecap="round" stroke-linejoin="round" stroke-width="1.5" d="M9.8 1H1m0 8.8V1m30 8.8V1m-8.7 0H31m-8.7 30H31m0-8.7V31M1 22.3V31m8.8 0H1" /></symbol></defs></svg>